<svg xmlns="http://www.w3.org/2000/svg" version="1.1" xmlns:xlink="http://www.w3.org/1999/xlink" xmlns:svgjs="http://svgjs.dev/svgjs" width="43.169289mm" height="49.951874mm"><svg width="43.169289mm" height="49.951874mm" viewBox="0 0 43.169289 49.951874" version="1.1" id="SvgjsSvg1279" inkscape:version="1.4 (1:1.4+202410161351+e7c3feb100)" sodipodi:docname="logo.svg" xml:space="preserve" xmlns:inkscape="http://www.inkscape.org/namespaces/inkscape" xmlns:sodipodi="http://sodipodi.sourceforge.net/DTD/sodipodi-0.dtd" xmlns="http://www.w3.org/2000/svg" xmlns:svg="http://www.w3.org/2000/svg"><sodipodi:namedview id="SvgjsSodipodi:namedview1278" pagecolor="#ffffff" bordercolor="#000000" borderopacity="0.25" inkscape:pageshadow="2" inkscape:pageopacity="0.0" inkscape:pagecheckerboard="0" inkscape:document-units="mm" showgrid="false" showguides="true" inkscape:guide-bbox="true" fit-margin-top="0" fit-margin-left="0" fit-margin-right="0" fit-margin-bottom="0" inkscape:zoom="3.7576806" inkscape:cx="65.066733" inkscape:cy="98.731117" inkscape:window-width="1920" inkscape:window-height="1131" inkscape:window-x="0" inkscape:window-y="32" inkscape:window-maximized="1" inkscape:current-layer="layer1" inkscape:showpageshadow="2" inkscape:deskcolor="#d1d1d1"><sodipodi:guide position="43.011517,12.579265" orientation="0,-1" id="SvgjsSodipodi:guide1277" inkscape:locked="false"></sodipodi:guide><sodipodi:guide position="43.011517,37.372616" orientation="0,-1" id="SvgjsSodipodi:guide1276" inkscape:locked="false"></sodipodi:guide><sodipodi:guide position="45.312067,40.012696" orientation="0,-1" id="SvgjsSodipodi:guide1275" inkscape:locked="false"></sodipodi:guide><sodipodi:guide position="10.189417,-43.12453" orientation="0,-1" id="SvgjsSodipodi:guide1274" inkscape:locked="false"></sodipodi:guide></sodipodi:namedview><defs id="SvgjsDefs1273"><inkscape:perspective sodipodi:type="inkscape:persp3d" inkscape:vp_x="0 : 388.91988 : 1" inkscape:vp_y="0 : 999.99996 : 0" inkscape:vp_z="1500.0001 : 388.91988 : 1" inkscape:persp3d-origin="750.00003 : 94.874417 : 1" id="SvgjsInkscape:perspective1272"></inkscape:perspective><clipPath id="SvgjsClipPath1271"><path d="m 45.315,71.927 h 12.92 v 15.867 h -12.92 z" id="SvgjsPath1270" inkscape:connector-curvature="0"></path></clipPath><clipPath id="SvgjsClipPath1269"><path d="m 123.91,72.178 h 26.23 v 15.294 h -26.23 z" id="SvgjsPath1268" inkscape:connector-curvature="0"></path></clipPath><clipPath id="SvgjsClipPath1267"><path d="m 413.96,49.857 h 31.76 v 8.719 h -31.76 z" id="SvgjsPath1266" inkscape:connector-curvature="0"></path></clipPath><inkscape:perspective sodipodi:type="inkscape:persp3d" inkscape:vp_x="0 : 142.75147 : 1" inkscape:vp_y="0 : 999.99992 : 0" inkscape:vp_z="1500.0001 : 142.75147 : 1" inkscape:persp3d-origin="750.00001 : -151.29398 : 1" id="SvgjsInkscape:perspective1265"></inkscape:perspective><clipPath id="SvgjsClipPath1264"><path d="m 45.315,71.927 h 12.92 v 15.867 h -12.92 z" id="SvgjsPath1263" inkscape:connector-curvature="0"></path></clipPath><clipPath id="SvgjsClipPath1262"><path d="m 123.91,72.178 h 26.23 v 15.294 h -26.23 z" id="SvgjsPath1261" inkscape:connector-curvature="0"></path></clipPath><clipPath id="SvgjsClipPath1260"><path d="m 413.96,49.857 h 31.76 v 8.719 h -31.76 z" id="SvgjsPath1259" inkscape:connector-curvature="0"></path></clipPath><inkscape:perspective sodipodi:type="inkscape:persp3d" inkscape:vp_x="0 : 142.75147 : 1" inkscape:vp_y="0 : 999.99992 : 0" inkscape:vp_z="1500.0001 : 142.75147 : 1" inkscape:persp3d-origin="750.00001 : -151.29398 : 1" id="SvgjsInkscape:perspective1258"></inkscape:perspective><clipPath id="SvgjsClipPath1257"><path d="m 45.315,71.927 h 12.92 v 15.867 h -12.92 z" id="SvgjsPath1256" inkscape:connector-curvature="0"></path></clipPath><clipPath id="SvgjsClipPath1255"><path d="m 123.91,72.178 h 26.23 v 15.294 h -26.23 z" id="SvgjsPath1254" inkscape:connector-curvature="0"></path></clipPath><clipPath id="SvgjsClipPath1253"><path d="m 413.96,49.857 h 31.76 v 8.719 h -31.76 z" id="SvgjsPath1252" inkscape:connector-curvature="0"></path></clipPath><inkscape:perspective sodipodi:type="inkscape:persp3d" inkscape:vp_x="0 : 388.91988 : 1" inkscape:vp_y="0 : 999.99996 : 0" inkscape:vp_z="1500.0001 : 388.91988 : 1" inkscape:persp3d-origin="750.00003 : 94.874417 : 1" id="SvgjsInkscape:perspective1251"></inkscape:perspective><clipPath id="SvgjsClipPath1250"><path d="m 45.315,71.927 h 12.92 v 15.867 h -12.92 z" id="SvgjsPath1249" inkscape:connector-curvature="0"></path></clipPath><clipPath id="SvgjsClipPath1248"><path d="m 123.91,72.178 h 26.23 v 15.294 h -26.23 z" id="SvgjsPath1247" inkscape:connector-curvature="0"></path></clipPath><clipPath id="SvgjsClipPath1246"><path d="m 413.96,49.857 h 31.76 v 8.719 h -31.76 z" id="SvgjsPath1245" inkscape:connector-curvature="0"></path></clipPath><inkscape:perspective sodipodi:type="inkscape:persp3d" inkscape:vp_x="0 : 388.91988 : 1" inkscape:vp_y="0 : 999.99996 : 0" inkscape:vp_z="1500.0001 : 388.91988 : 1" inkscape:persp3d-origin="750.00003 : 94.874417 : 1" id="SvgjsInkscape:perspective1244"></inkscape:perspective><clipPath id="SvgjsClipPath1243"><path d="m 45.315,71.927 h 12.92 v 15.867 h -12.92 z" id="SvgjsPath1242" inkscape:connector-curvature="0"></path></clipPath><clipPath id="SvgjsClipPath1241"><path d="m 123.91,72.178 h 26.23 v 15.294 h -26.23 z" id="SvgjsPath1240" inkscape:connector-curvature="0"></path></clipPath><clipPath id="SvgjsClipPath1239"><path d="m 413.96,49.857 h 31.76 v 8.719 h -31.76 z" id="SvgjsPath1238" inkscape:connector-curvature="0"></path></clipPath><inkscape:perspective sodipodi:type="inkscape:persp3d" inkscape:vp_x="0 : 388.91988 : 1" inkscape:vp_y="0 : 999.99996 : 0" inkscape:vp_z="1500.0001 : 388.91988 : 1" inkscape:persp3d-origin="750.00003 : 94.874417 : 1" id="SvgjsInkscape:perspective1237"></inkscape:perspective><clipPath id="SvgjsClipPath1236"><path d="m 45.315,71.927 h 12.92 v 15.867 h -12.92 z" id="SvgjsPath1235" inkscape:connector-curvature="0"></path></clipPath><clipPath id="SvgjsClipPath1234"><path d="m 123.91,72.178 h 26.23 v 15.294 h -26.23 z" id="SvgjsPath1233" inkscape:connector-curvature="0"></path></clipPath><clipPath id="SvgjsClipPath1232"><path d="m 413.96,49.857 h 31.76 v 8.719 h -31.76 z" id="SvgjsPath1231" inkscape:connector-curvature="0"></path></clipPath><clipPath clipPathUnits="userSpaceOnUse" id="SvgjsClipPath1230"><path d="m 4269.8,3683.33 h 1147.9 v 971.02 H 4269.8 Z" transform="translate(2.5e-4)" id="SvgjsPath1229"></path></clipPath><clipPath clipPathUnits="userSpaceOnUse" id="SvgjsClipPath1228"><path d="m 4470.83,4481.79 h 134.539 v 78.0117 H 4470.83 Z" transform="translate(2.5e-4)" id="SvgjsPath1227"></path></clipPath><clipPath clipPathUnits="userSpaceOnUse" id="SvgjsClipPath1226"><path d="m 4741.72,4511.2 h 112.59 v 65.3906 h -112.59 z" transform="translate(2.5e-4)" id="SvgjsPath1225"></path></clipPath><clipPath clipPathUnits="userSpaceOnUse" id="SvgjsClipPath1224"><path d="m 5003.01,4464.49 h 106.258 v 61.707 H 5003.01 Z" transform="translate(2.5e-4)" id="SvgjsPath1223"></path></clipPath><clipPath clipPathUnits="userSpaceOnUse" id="SvgjsClipPath1222"><path d="m 4641.19,4337.78 h 112.629 v 65.3086 H 4641.19 Z" transform="translate(2.5e-4)" id="SvgjsPath1221"></path></clipPath><clipPath clipPathUnits="userSpaceOnUse" id="SvgjsClipPath1220"><path d="m 4831.93,4184.54 h 95.2422 v 65.6602 H 4831.93 Z" transform="translate(2.5e-4)" id="SvgjsPath1219"></path></clipPath><clipPath clipPathUnits="userSpaceOnUse" id="SvgjsClipPath1218"><path d="m 4538.1,4190.22 h 95.2305 v 65.6602 H 4538.1 Z" transform="translate(2.5e-4)" id="SvgjsPath1217"></path></clipPath><clipPath clipPathUnits="userSpaceOnUse" id="SvgjsClipPath1216"><path d="m 5164.25,4213.97 h 95.2305 v 65.6602 H 5164.25 Z" transform="translate(2.5e-4)" id="SvgjsPath1215"></path></clipPath><clipPath clipPathUnits="userSpaceOnUse" id="SvgjsClipPath1214"><path d="m 4394.99,4317.72 h 112.594 v 65.3906 H 4394.99 Z" transform="translate(2.5e-4)" id="SvgjsPath1213"></path></clipPath><clipPath clipPathUnits="userSpaceOnUse" id="SvgjsClipPath1212"><path d="m 4921.97,4322.92 h 110.633 v 68.6797 H 4921.97 Z" transform="translate(2.5e-4)" id="SvgjsPath1211"></path></clipPath><clipPath clipPathUnits="userSpaceOnUse" id="SvgjsClipPath1210"><path d="m 4641.1913,4337.7815 h 112.6288 v 65.3089 h -112.6288 z" id="SvgjsPath1209" style="stroke-width:1"></path></clipPath><clipPath clipPathUnits="userSpaceOnUse" id="SvgjsClipPath1208"><path d="m 4741.7216,4511.2015 h 112.5895 v 65.3909 h -112.5895 z" id="SvgjsPath1207" style="stroke-width:1"></path></clipPath><clipPath clipPathUnits="userSpaceOnUse" id="SvgjsClipPath1206"><path d="m 4538.1014,4190.2212 h 95.2303 v 65.6607 h -95.2303 z" id="SvgjsPath1205" style="stroke-width:1"></path></clipPath><clipPath clipPathUnits="userSpaceOnUse" id="SvgjsClipPath1204"><path d="m 5164.2513,4213.9711 h 95.2302 v 65.6607 h -95.2302 z" id="SvgjsPath1203" style="stroke-width:1"></path></clipPath><clipPath clipPathUnits="userSpaceOnUse" id="SvgjsClipPath1202"><path d="M 4470.8312,4481.7918 H 4605.37 v 78.0115 h -134.5388 z" id="SvgjsPath1201" style="stroke-width:1"></path></clipPath><clipPath clipPathUnits="userSpaceOnUse" id="SvgjsClipPath1200"><path d="m 4269.8013,3683.3309 h 1147.8999 v 971.0208 H 4269.8013 Z" id="SvgjsPath1199" style="stroke-width:1"></path></clipPath><clipPath clipPathUnits="userSpaceOnUse" id="SvgjsClipPath1198"><path d="m 5003.011,4464.492 h 106.2583 v 61.7067 H 5003.011 Z" id="SvgjsPath1197" style="stroke-width:1"></path></clipPath><clipPath clipPathUnits="userSpaceOnUse" id="SvgjsClipPath1196"><path d="m 4921.9716,4322.9216 h 110.633 v 68.6797 h -110.633 z" id="SvgjsPath1195" style="stroke-width:1"></path></clipPath><clipPath clipPathUnits="userSpaceOnUse" id="SvgjsClipPath1194"><path d="m 4394.9914,4317.7212 h 112.5935 v 65.3908 h -112.5935 z" id="SvgjsPath1193" style="stroke-width:1"></path></clipPath><clipPath clipPathUnits="userSpaceOnUse" id="SvgjsClipPath1192"><path d="m 4831.9313,4184.5413 h 95.2423 v 65.6607 h -95.2423 z" id="SvgjsPath1191" style="stroke-width:1"></path></clipPath></defs><g inkscape:label="Layer 1" inkscape:groupmode="layer" id="SvgjsG1190" transform="translate(679.36801,-136.39071)"><path sodipodi:type="star" style="fill:#eff7a4;fill-opacity:1;stroke:#000000;stroke-width:21.7043;stroke-miterlimit:4;stroke-dasharray:none;stroke-opacity:1" id="SvgjsPath1189" sodipodi:sides="6" sodipodi:cx="-5551.2134" sodipodi:cy="-204.52565" sodipodi:r1="1701.6108" sodipodi:r2="1473.6381" sodipodi:arg1="1.0471976" sodipodi:arg2="1.5707963" inkscape:flatsided="true" inkscape:rounded="0" inkscape:randomized="0" inkscape:transform-center-x="1.5731476e-05" inkscape:transform-center-y="7.9344316e-05" transform="matrix(0,0.01457052,-0.0145401,0,-660.75719,242.25071)" d="m -4700.408,1269.1126 -1701.6109,-10e-5 -850.8053,-1473.63823 850.8055,-1473.63817 1701.6108,10e-5 850.8054,1473.63823 z"></path><path d="m -656.73224,182.81082 q 0.18881,-0.10901 0.33526,-0.11782 0.14644,-0.009 0.26093,0.0498 0.11451,0.0585 0.20158,0.16715 0.089,0.1075 0.15988,0.23032 0.0772,0.13381 0.11123,0.27306 0.0358,0.1382 0.0162,0.2693 -0.0188,0.12819 -0.0982,0.24486 -0.0803,0.11486 -0.23248,0.2027 -0.12098,0.0699 -0.20491,0.0938 -0.0809,0.0248 -0.14146,0.0132 -0.0585,-0.0126 -0.10216,-0.0583 -0.0435,-0.0458 -0.0848,-0.11725 l -0.39794,-0.68925 q -0.0455,-0.0788 -0.0697,-0.15038 -0.0224,-0.0726 -0.007,-0.1399 0.0139,-0.0691 0.0734,-0.13524 0.0614,-0.0672 0.18056,-0.136 z m 0.66097,1.12884 q 0.11365,-0.0656 0.16368,-0.1483 0.0508,-0.0856 0.0557,-0.17878 0.005,-0.0932 -0.0284,-0.18893 -0.0314,-0.0968 -0.0832,-0.18657 -0.0476,-0.0825 -0.10807,-0.15758 -0.0615,-0.0769 -0.14102,-0.12144 -0.0795,-0.0445 -0.17898,-0.0433 -0.0995,0.001 -0.22416,0.0732 -0.11365,0.0656 -0.1386,0.12401 -0.0249,0.0584 0.0142,0.12622 l 0.40534,0.70207 q 0.0328,0.0568 0.0901,0.0629 0.058,0.003 0.1735,-0.0636 z" style="font-weight:bold;font-size:2.11667px;font-family:Sniglet;-inkscape-font-specification:'Sniglet Bold';fill:#000000;stroke-width:0.315912;stroke-linecap:round;stroke-linejoin:round" id="SvgjsPath1188"></path><path d="m -654.99456,183.08584 q -0.0642,0.037 -0.14094,0.0691 -0.076,0.0292 -0.17755,0.0439 0.0811,0.10227 0.18902,0.11573 0.10979,0.0124 0.25278,-0.0702 0.0513,-0.0297 0.0887,-0.0581 0.0382,-0.0313 0.0649,-0.057 0.0259,-0.0272 0.0465,-0.0464 0.0198,-0.0207 0.04,-0.0323 0.0256,-0.0148 0.059,-0.0122 0.0323,8.9e-4 0.0535,0.0376 0.0265,0.0458 0.005,0.0974 -0.0197,0.0505 -0.0641,0.10054 -0.0437,0.0472 -0.10095,0.0876 -0.0565,0.0419 -0.10231,0.0683 -0.10816,0.0624 -0.21677,0.086 -0.10677,0.0225 -0.20662,0.002 -0.10089,-0.0223 -0.18837,-0.0892 -0.0874,-0.0668 -0.15517,-0.18415 -0.0656,-0.11366 -0.0816,-0.22175 -0.0142,-0.10914 0.0133,-0.20563 0.0275,-0.0965 0.0937,-0.17632 0.0682,-0.0809 0.16714,-0.13807 0.077,-0.0444 0.16013,-0.0655 0.085,-0.0222 0.16327,-0.0136 0.0801,0.008 0.14909,0.0508 0.0697,0.0403 0.11737,0.12288 0.0423,0.0734 0.0444,0.14055 0.002,0.0673 -0.0312,0.12804 -0.0315,0.0598 -0.0945,0.11566 -0.0612,0.0548 -0.14738,0.10459 z m -0.25835,-0.41788 q -0.0495,0.0286 -0.0879,0.0678 -0.0395,0.0375 -0.0621,0.0871 -0.0218,0.0468 -0.0222,0.10563 -10e-4,0.057 0.0266,0.12642 0.0876,-0.009 0.16106,-0.0343 0.0723,-0.0271 0.14566,-0.0694 0.10815,-0.0624 0.14468,-0.11771 0.0373,-0.0582 -0.003,-0.12785 -0.0371,-0.0642 -0.1141,-0.0832 -0.0751,-0.0201 -0.18881,0.0455 z" style="font-weight:bold;font-size:2.11667px;font-family:Sniglet;-inkscape-font-specification:'Sniglet Bold';fill:#000000;stroke-width:0.315912;stroke-linecap:round;stroke-linejoin:round" id="SvgjsPath1187"></path><path d="m -654.47239,181.95825 q 0.0385,-0.0223 0.10114,-0.0492 0.0616,-0.0287 0.12558,-0.0408 0.0627,-0.0142 0.11914,-0.005 0.0565,0.009 0.0839,0.0566 0.0159,0.0275 0.0111,0.0571 -0.003,0.0286 -0.036,0.0477 -0.0238,0.0137 -0.059,0.0248 -0.0334,0.01 -0.0755,0.0216 -0.0412,0.009 -0.0876,0.0261 -0.0444,0.0164 -0.0902,0.0428 -0.077,0.0445 -0.11273,0.0968 -0.0339,0.0513 -0.004,0.10267 0.0169,0.0294 0.0451,0.0399 0.03,0.01 0.0688,0.009 0.0396,-0.003 0.0863,-0.0157 0.0485,-0.0134 0.10069,-0.0288 0.0653,-0.0182 0.13086,-0.0316 0.0674,-0.0144 0.13048,-0.007 0.062,0.006 0.11799,0.0394 0.055,0.0317 0.0963,0.10324 0.0783,0.13566 0.0222,0.27558 -0.0572,0.13808 -0.25696,0.25343 -0.044,0.0254 -0.10849,0.0534 -0.0635,0.0298 -0.1274,0.0418 -0.0627,0.0143 -0.11916,0.005 -0.0557,-0.0118 -0.0864,-0.065 -0.0212,-0.0366 -0.0153,-0.0645 0.007,-0.0308 0.0323,-0.0456 0.0202,-0.0117 0.0496,-0.0115 0.0294,1.2e-4 0.069,-0.003 0.0396,-0.003 0.091,-0.0159 0.0514,-0.0126 0.11555,-0.0496 0.0238,-0.0137 0.0613,-0.0377 0.0364,-0.0257 0.0657,-0.0598 0.0311,-0.035 0.0441,-0.0719 0.0138,-0.0397 -0.0106,-0.0819 -0.019,-0.033 -0.0501,-0.0444 -0.0321,-0.0132 -0.0728,-0.0118 -0.0407,0.002 -0.0892,0.0149 -0.0478,0.0105 -0.10097,0.0241 -0.0616,0.0161 -0.12721,0.0294 -0.0638,0.0123 -0.12465,0.008 -0.0609,-0.004 -0.1138,-0.0321 -0.054,-0.0299 -0.0921,-0.0959 -0.036,-0.0624 -0.041,-0.13029 -0.006,-0.0698 0.0183,-0.13767 0.0243,-0.0679 0.0776,-0.12797 0.0551,-0.0611 0.13762,-0.10878 z" style="font-weight:bold;font-size:2.11667px;font-family:Sniglet;-inkscape-font-specification:'Sniglet Bold';fill:#000000;stroke-width:0.315912;stroke-linecap:round;stroke-linejoin:round" id="SvgjsPath1186"></path><path d="m -653.45213,182.4935 q -0.0426,-0.0658 -0.0958,-0.14998 -0.0525,-0.087 -0.11285,-0.19148 -0.0751,-0.13014 -0.12632,-0.2228 -0.0522,-0.0945 -0.0787,-0.15744 -0.0257,-0.0658 -0.0233,-0.10389 10e-4,-0.04 0.0344,-0.059 0.0312,-0.018 0.0677,-0.01 0.0365,0.008 0.0826,0.0794 0.12212,0.18612 0.22584,0.36576 0.0529,0.0917 0.096,0.17432 0.042,0.0808 0.0936,0.17814 0.0237,0.045 0.03,0.0731 0.009,0.0268 0.005,0.0461 -0.004,0.0192 -0.0172,0.0294 -0.0108,0.0109 -0.0292,0.0215 -0.033,0.019 -0.0677,0.01 -0.0358,-0.0111 -0.0828,-0.0842 z m -0.59278,-1.21712 q 0.0422,-0.0243 0.096,-0.0114 0.0557,0.0118 0.0821,0.0577 0.0254,0.044 0.008,0.0981 -0.0186,0.0523 -0.0644,0.0788 -0.0385,0.0222 -0.0914,0.0112 -0.0521,-0.0139 -0.0796,-0.0616 -0.0254,-0.044 -0.0104,-0.0942 0.0158,-0.0531 0.0598,-0.0785 z" style="font-weight:bold;font-size:2.11667px;font-family:Sniglet;-inkscape-font-specification:'Sniglet Bold';fill:#000000;stroke-width:0.315912;stroke-linecap:round;stroke-linejoin:round" id="SvgjsPath1185"></path><path d="m -652.47897,182.41802 q 0.0862,-0.0498 0.12473,-0.11842 0.0415,-0.0679 0.0411,-0.15324 6.3e-4,-0.0835 -0.0354,-0.17997 -0.0353,-0.0994 -0.0999,-0.21119 0.0173,0.0682 0.01,0.12649 -0.008,0.0584 -0.0353,0.10834 -0.0266,0.0471 -0.0716,0.0877 -0.045,0.0406 -0.10001,0.0724 -0.0843,0.0487 -0.17322,0.0683 -0.0889,0.0196 -0.17539,10e-4 -0.0847,-0.0196 -0.16313,-0.0793 -0.0795,-0.0616 -0.14412,-0.17343 -0.0624,-0.10815 -0.0831,-0.21597 -0.0199,-0.1107 0.002,-0.21162 0.0242,-0.10199 0.091,-0.18944 0.0668,-0.0874 0.18049,-0.15305 0.0604,-0.0349 0.11267,-0.0504 0.054,-0.0165 0.1013,-0.0193 0.0472,-0.003 0.0896,0.007 0.0442,0.009 0.0849,0.0243 0.12043,0.0478 0.22147,0.15076 0.1,0.10115 0.19733,0.26979 0.072,0.12465 0.12512,0.2675 0.055,0.1418 0.0603,0.27803 0.006,0.13807 -0.0527,0.26016 -0.058,0.1239 -0.21015,0.21174 -0.0275,0.0159 -0.0643,0.0325 -0.034,0.0173 -0.0736,0.0333 -0.0378,0.0149 -0.0791,0.0237 -0.0401,0.0109 -0.079,0.0114 -0.0483,9.7e-4 -0.0808,-0.005 -0.0326,-0.006 -0.0569,-0.0478 -0.0201,-0.0348 -0.0224,-0.0726 6.1e-4,-0.037 0.0391,-0.0592 0.0184,-0.0106 0.0467,-0.0123 0.0284,-0.002 0.0659,-0.009 0.0404,-0.006 0.0907,-0.0206 0.0522,-0.0155 0.11633,-0.0525 z m -0.24482,-0.44524 q 0.0715,-0.0413 0.10618,-0.0955 0.0355,-0.0571 0.0413,-0.1191 0.008,-0.0631 -0.01,-0.12649 -0.0152,-0.0645 -0.047,-0.11953 -0.0265,-0.0458 -0.0657,-0.0843 -0.0385,-0.0413 -0.0882,-0.064 -0.0497,-0.0226 -0.11117,-0.019 -0.0614,0.004 -0.13289,0.045 -0.12099,0.0699 -0.1538,0.18659 -0.031,0.11571 0.0515,0.25866 0.0773,0.13381 0.18558,0.16904 0.10834,0.0352 0.22383,-0.0314 z" style="font-weight:bold;font-size:2.11667px;font-family:Sniglet;-inkscape-font-specification:'Sniglet Bold';fill:#000000;stroke-width:0.315912;stroke-linecap:round;stroke-linejoin:round" id="SvgjsPath1184"></path><path d="m -651.98228,180.75522 q -0.0678,0.0392 -0.11012,0.0929 -0.0405,0.0527 -0.0829,0.13584 0.0222,0.0385 0.0656,0.11366 0.0424,0.0734 0.0914,0.16231 0.048,0.0872 0.095,0.17248 0.047,0.0854 0.0746,0.14515 0.0177,0.0386 0.0247,0.0639 0.008,0.0222 0.005,0.0386 -5.8e-4,0.015 -0.0136,0.0273 -0.0118,0.009 -0.0338,0.0218 -0.022,0.0127 -0.0376,0.0194 -0.0148,0.004 -0.0294,-1.2e-4 -0.0155,-0.006 -0.0326,-0.0227 -0.0168,-0.0172 -0.0409,-0.0497 -0.0225,-0.031 -0.0577,-0.084 -0.0335,-0.054 -0.0723,-0.11716 -0.0398,-0.065 -0.0797,-0.12998 -0.0391,-0.0678 -0.072,-0.12465 -0.054,-0.0935 -0.0861,-0.15314 -0.0304,-0.0606 -0.0493,-0.11084 -0.0335,-0.0833 -0.0267,-0.11411 0.007,-0.0308 0.0379,-0.0488 0.0458,-0.0265 0.0826,-0.0135 0.0386,0.0119 0.0781,0.0674 0.034,-0.0978 0.0908,-0.1771 0.0587,-0.0803 0.1412,-0.12794 0.0788,-0.0455 0.16413,-0.0459 0.0871,-0.001 0.17695,0.0567 0.0542,0.0346 0.10195,0.0878 0.0467,0.0512 0.0903,0.11404 0.0187,0.0284 0.0373,0.0566 0.0176,0.0265 0.0366,0.0594 0.0197,0.0302 0.043,0.0705 0.0233,0.0403 0.055,0.0953 0.0339,0.0586 0.0618,0.11099 0.0279,0.0523 0.0409,0.0962 0.0142,0.0406 0.006,0.0745 -0.009,0.0318 -0.0434,0.0519 -0.0843,0.0487 -0.13453,-0.0298 -0.003,-0.005 -0.0265,-0.0458 -0.0243,-0.0422 -0.0578,-0.0962 -0.0317,-0.055 -0.0663,-0.11081 -0.0328,-0.0568 -0.0557,-0.0925 -0.0187,-0.0284 -0.0412,-0.0593 -0.0218,-0.0338 -0.0471,-0.0656 -0.0236,-0.0328 -0.0491,-0.0596 -0.026,-0.029 -0.0522,-0.048 -0.0605,-0.0456 -0.10862,-0.0399 -0.048,0.006 -0.092,0.0312 z" style="font-weight:bold;font-size:2.11667px;font-family:Sniglet;-inkscape-font-specification:'Sniglet Bold';fill:#000000;stroke-width:0.315912;stroke-linecap:round;stroke-linejoin:round" id="SvgjsPath1183"></path><path d="m -651.04858,179.65888 q 0.0635,0.10999 0.12643,0.23497 0.0636,0.12216 0.11977,0.24126 -0.005,-0.0632 0.0137,-0.12035 0.0173,-0.0588 0.0505,-0.10733 0.0349,-0.0495 0.0799,-0.0901 0.045,-0.0406 0.0926,-0.0682 0.0825,-0.0477 0.17198,-0.0577 0.0903,-0.013 0.17728,0.015 0.0878,0.0251 0.1669,0.0943 0.0799,0.0663 0.14338,0.17631 0.0614,0.10632 0.081,0.21231 0.0196,0.10599 -0.006,0.20612 -0.0245,0.0973 -0.0961,0.18499 -0.0697,0.0867 -0.18704,0.15441 -0.15948,0.0921 -0.28818,0.0808 -0.12688,-0.0123 -0.23225,-0.0932 -0.10644,-0.0828 -0.19786,-0.21572 -0.0896,-0.13401 -0.17746,-0.28616 -0.0889,-0.15398 -0.15567,-0.28163 -0.0668,-0.12765 -0.1,-0.21114 -0.0292,-0.076 -0.0205,-0.12013 0.009,-0.0442 0.0509,-0.0685 0.0312,-0.018 0.0579,-0.0139 0.0258,0.002 0.0468,0.0218 0.0229,0.0185 0.0427,0.0486 0.0187,0.0284 0.0388,0.0632 z m 0.53589,0.30164 q -0.0532,0.0307 -0.0921,0.0776 -0.0381,0.044 -0.0555,0.10293 -0.0155,0.0578 -0.005,0.12733 0.01,0.0677 0.0553,0.14652 0.0804,0.13931 0.19058,0.17349 0.11087,0.0312 0.22639,-0.0354 0.0476,-0.0275 0.0897,-0.0689 0.041,-0.0432 0.0623,-0.0995 0.0203,-0.0581 0.0131,-0.12975 -0.007,-0.0716 -0.0559,-0.15595 -0.0434,-0.0752 -0.0971,-0.11745 -0.0519,-0.0433 -0.10867,-0.057 -0.0578,-0.0155 -0.11506,-0.004 -0.0571,0.011 -0.10848,0.0407 z" style="font-weight:bold;font-size:2.11667px;font-family:Sniglet;-inkscape-font-specification:'Sniglet Bold';fill:#000000;stroke-width:0.315912;stroke-linecap:round;stroke-linejoin:round" id="SvgjsPath1182"></path><path d="m -649.07573,180.56559 q 5.3e-4,0.0559 -0.01,0.0888 -0.009,0.0318 -0.036,0.0477 -0.0256,0.0148 -0.0609,0.0132 -0.0351,-0.002 -0.0521,-0.031 -0.0159,-0.0275 -0.0271,-0.0894 -0.009,-0.063 -0.0169,-0.13932 -0.006,-0.0774 -0.0114,-0.15959 -0.006,-0.0822 -0.0109,-0.15013 l -0.003,-0.0349 q -0.11743,-0.0764 -0.247,-0.16536 -0.12771,-0.09 -0.23889,-0.17247 -0.11113,-0.0825 -0.18888,-0.14515 -0.077,-0.0655 -0.0918,-0.0912 -0.0137,-0.0238 -0.005,-0.051 0.01,-0.03 0.0389,-0.047 0.0256,-0.0148 0.0558,-0.0175 0.0291,-0.005 0.0694,0.0186 0.0611,0.038 0.13356,0.0915 0.0732,0.0506 0.14884,0.1096 0.0774,0.0579 0.15594,0.11771 0.0803,0.0587 0.15747,0.11195 -0.003,-0.0985 -0.005,-0.2074 -0.002,-0.10889 -0.004,-0.21028 -4.6e-4,-0.10239 -8.6e-4,-0.1877 -10e-4,-0.0871 -10e-4,-0.14598 10e-4,-0.057 0.0164,-0.0902 0.015,-0.0332 0.0426,-0.0491 0.0184,-0.0106 0.0462,-0.005 0.0268,0.004 0.0417,0.0298 0.0222,0.0384 0.0371,0.14475 0.0157,0.10341 0.0271,0.24589 0.0114,0.14252 0.0177,0.30998 0.007,0.16459 0.012,0.32551 0.004,0.15908 0.005,0.30033 0.003,0.14016 0.006,0.23389 z" style="font-weight:bold;font-size:2.11667px;font-family:Sniglet;-inkscape-font-specification:'Sniglet Bold';fill:#000000;stroke-width:0.315912;stroke-linecap:round;stroke-linejoin:round" id="SvgjsPath1181"></path><path d="m -646.94747,178.81624 q -0.029,-0.0248 -0.0548,-0.0612 -0.0239,-0.0375 -0.0568,-0.0943 -0.0233,-0.0404 -0.036,-0.0624 -0.012,-0.0248 -0.0216,-0.0414 -0.0106,-0.0184 -0.0201,-0.0348 -0.009,-0.0194 -0.0269,-0.0505 -0.0371,-0.0642 -0.0775,-0.12631 -0.0398,-0.065 -0.0861,-0.10672 -0.0472,-0.0436 -0.1011,-0.0565 -0.0539,-0.0129 -0.11988,0.0252 -0.11181,0.0645 -0.11276,0.20685 -9.7e-4,0.14233 0.12063,0.38253 0.0389,0.0753 0.0738,0.13581 0.0349,0.0605 0.0534,0.10849 0.0174,0.0462 0.0106,0.0818 -0.005,0.0344 -0.0486,0.0598 -0.0404,0.0233 -0.0703,0.0137 -0.0311,-0.0114 -0.0646,-0.0483 -0.0313,-0.0382 -0.0684,-0.0974 -0.0349,-0.0605 -0.0867,-0.13814 -0.056,-0.085 -0.11573,-0.15805 -0.0575,-0.0743 -0.11994,-0.11895 -0.0616,-0.0476 -0.1286,-0.0577 -0.0652,-0.0112 -0.13481,0.029 -0.066,0.0381 -0.0836,0.0923 -0.0168,0.0513 -0.003,0.114 0.0132,0.0609 0.0476,0.12897 0.0353,0.0652 0.0734,0.13115 0.019,0.033 0.0286,0.0495 0.0102,0.0136 0.0176,0.0265 0.007,0.0128 0.019,0.033 0.0134,0.0192 0.0377,0.0613 0.0349,0.0605 0.0569,0.10649 0.0237,0.045 0.0306,0.0826 0.008,0.044 -0.008,0.0659 -0.018,0.0196 -0.0364,0.0302 -0.0568,0.0328 -0.0967,0.002 -0.0398,-0.0309 -0.0861,-0.10672 -0.0244,-0.0422 -0.0557,-0.0925 -0.0307,-0.0532 -0.0741,-0.12831 -0.0212,-0.0366 -0.0371,-0.0642 -0.0159,-0.0274 -0.0307,-0.0532 -0.0131,-0.0266 -0.0279,-0.0524 -0.0141,-0.0284 -0.0325,-0.0643 -0.0594,-0.11482 -0.0623,-0.20112 -0.004,-0.0879 0.0233,-0.1503 0.0275,-0.0623 0.0772,-0.10325 0.0487,-0.0427 0.0945,-0.0692 0.099,-0.0571 0.18376,-0.0669 0.0848,-0.01 0.15444,0.0135 0.0715,0.0222 0.12662,0.0711 0.0569,0.0478 0.10027,0.10586 -0.028,-0.0645 -0.0394,-0.13609 -0.0111,-0.0742 0.006,-0.14548 0.0183,-0.0741 0.0729,-0.14472 0.0545,-0.0706 0.15903,-0.13096 0.0494,-0.0285 0.10716,-0.0472 0.0585,-0.0215 0.12256,-0.0121 0.0641,0.009 0.13156,0.0585 0.0682,0.0462 0.13717,0.153 0.0218,0.0338 0.0377,0.0614 0.0165,0.0246 0.0314,0.0504 0.0165,0.0246 0.0324,0.0522 0.0159,0.0274 0.0371,0.0642 0.0434,0.0752 0.0724,0.12931 0.0296,0.0514 0.054,0.0935 0.0201,0.0348 0.0336,0.0662 0.0152,0.0304 0.0176,0.0558 0.002,0.0255 -0.008,0.0489 -0.0102,0.0205 -0.0432,0.0396 -0.0312,0.018 -0.054,0.0165 -0.0239,-0.003 -0.0519,-0.0263 z" style="font-weight:bold;font-size:2.11667px;font-family:Sniglet;-inkscape-font-specification:'Sniglet Bold';fill:#000000;stroke-width:0.315912;stroke-linecap:round;stroke-linejoin:round" id="SvgjsPath1180"></path><path d="m -646.76243,177.5069 q 0.0385,-0.0222 0.10114,-0.0492 0.0616,-0.0287 0.12558,-0.0408 0.0627,-0.0142 0.11915,-0.005 0.0564,0.009 0.0839,0.0566 0.0159,0.0275 0.0111,0.0571 -0.003,0.0286 -0.036,0.0477 -0.0238,0.0137 -0.059,0.0248 -0.0334,0.01 -0.0755,0.0217 -0.0412,0.009 -0.0876,0.0261 -0.0444,0.0164 -0.0902,0.0428 -0.077,0.0445 -0.11274,0.0968 -0.0339,0.0513 -0.004,0.10267 0.0169,0.0294 0.045,0.04 0.03,0.01 0.0688,0.009 0.0396,-0.003 0.0862,-0.0156 0.0485,-0.0134 0.10069,-0.0288 0.0653,-0.0182 0.13086,-0.0316 0.0674,-0.0144 0.13047,-0.007 0.062,0.006 0.11799,0.0394 0.055,0.0317 0.0963,0.10324 0.0783,0.13566 0.0222,0.27558 -0.0572,0.13808 -0.25696,0.25343 -0.044,0.0254 -0.10849,0.0534 -0.0634,0.0297 -0.1274,0.0418 -0.0627,0.0143 -0.11915,0.005 -0.0557,-0.0118 -0.0864,-0.065 -0.0212,-0.0366 -0.0152,-0.0645 0.007,-0.0308 0.0323,-0.0456 0.0202,-0.0117 0.0496,-0.0115 0.0294,1.2e-4 0.069,-0.003 0.0396,-0.003 0.091,-0.0159 0.0514,-0.0126 0.11555,-0.0496 0.0238,-0.0137 0.0613,-0.0377 0.0364,-0.0257 0.0657,-0.0599 0.0311,-0.035 0.0441,-0.0719 0.0138,-0.0397 -0.0106,-0.0819 -0.019,-0.033 -0.0501,-0.0444 -0.0321,-0.0132 -0.0728,-0.0118 -0.0407,0.002 -0.0892,0.0149 -0.0478,0.0105 -0.10097,0.0241 -0.0616,0.0161 -0.12721,0.0295 -0.0638,0.0123 -0.12465,0.008 -0.061,-0.004 -0.1138,-0.0321 -0.054,-0.0299 -0.0921,-0.0959 -0.036,-0.0624 -0.041,-0.13029 -0.006,-0.0698 0.0183,-0.13767 0.0243,-0.0679 0.0776,-0.12797 0.0551,-0.0611 0.13762,-0.10878 z" style="font-weight:bold;font-size:2.11667px;font-family:Sniglet;-inkscape-font-specification:'Sniglet Bold';fill:#000000;stroke-width:0.315912;stroke-linecap:round;stroke-linejoin:round" id="SvgjsPath1179"></path><path d="m -644.80116,177.69928 q -0.12448,0.0765 -0.30863,0.18512 -0.1813,0.10929 -0.41594,0.24476 -0.12465,0.072 -0.18626,0.088 -0.0616,0.0161 -0.0966,-0.0445 -0.01,-0.0165 -0.0135,-0.0314 -0.005,-0.0166 0.002,-0.0352 0.005,-0.0202 0.0232,-0.0403 0.0198,-0.0207 0.0541,-0.0459 0.0375,-0.024 0.0768,-0.049 0.0412,-0.0261 0.0925,-0.0557 0.0522,-0.0324 0.11998,-0.0716 0.0678,-0.0391 0.15948,-0.0921 0.099,-0.0572 0.19714,-0.11151 0.0972,-0.0561 0.19731,-0.10699 0.045,-0.0237 0.0731,-0.03 0.0278,-0.007 0.0472,-0.003 0.0192,0.004 0.0294,0.0172 0.0119,0.0126 0.0225,0.031 0.019,0.033 0.008,0.0687 -0.009,0.0347 -0.0824,0.0817 z" style="font-weight:bold;font-size:2.11667px;font-family:Sniglet;-inkscape-font-specification:'Sniglet Bold';fill:#000000;stroke-width:0.315912;stroke-linecap:round;stroke-linejoin:round" id="SvgjsPath1178"></path><path d="m -644.219,177.66623 q 0.0201,0.0348 0.0364,0.067 0.0173,0.034 0.021,0.066 0.006,0.0309 -0.006,0.0573 -0.009,0.0271 -0.0436,0.0472 -0.0404,0.0233 -0.0848,0.01 -0.0415,-0.0127 -0.0865,-0.082 -0.0282,-0.0448 -0.0698,-0.10883 -0.0416,-0.064 -0.0874,-0.13531 -0.0441,-0.0724 -0.0899,-0.14365 -0.0441,-0.0724 -0.0801,-0.13464 -0.12382,-0.21447 -0.1749,-0.37074 -0.0493,-0.15732 -0.0364,-0.27472 0.0129,-0.1174 0.0818,-0.20121 0.0708,-0.0849 0.18809,-0.15259 0.0935,-0.054 0.19293,-0.0722 0.0983,-0.0201 0.19378,0.005 0.0962,0.0226 0.18789,0.0968 0.0906,0.0723 0.1668,0.20432 0.0635,0.10999 0.0737,0.21651 0.0121,0.1055 -0.0201,0.20225 -0.0332,0.0949 -0.10502,0.17795 -0.071,0.0801 -0.17185,0.13836 -0.0862,0.0498 -0.17592,0.0551 -0.0889,0.003 -0.14265,-0.0227 0.0684,0.0974 0.1247,0.18219 0.0577,0.084 0.10852,0.17198 z m -0.33652,-1.16708 q -0.0642,0.037 -0.0991,0.0866 -0.0331,0.0484 -0.0403,0.10385 -0.007,0.0555 0.009,0.11705 0.0179,0.0606 0.0539,0.12288 0.0349,0.0605 0.0777,0.10914 0.0435,0.0458 0.0943,0.0702 0.0508,0.0245 0.1104,0.0218 0.0596,-0.003 0.12557,-0.0408 0.0514,-0.0296 0.0916,-0.07 0.0392,-0.0421 0.0568,-0.0963 0.0194,-0.0552 0.01,-0.12294 -0.008,-0.0687 -0.0556,-0.15123 -0.0487,-0.0844 -0.1053,-0.12739 -0.0558,-0.0459 -0.11451,-0.0585 -0.0578,-0.0155 -0.114,-0.003 -0.0543,0.0118 -0.1001,0.0383 z" style="font-weight:bold;font-size:2.11667px;font-family:Sniglet;-inkscape-font-specification:'Sniglet Bold';fill:#000000;stroke-width:0.315912;stroke-linecap:round;stroke-linejoin:round" id="SvgjsPath1177"></path><path d="m -643.58632,175.70983 q 0.10449,-0.0603 0.20603,-0.075 0.10053,-0.0165 0.19118,0.009 0.0925,0.0248 0.17236,0.0911 0.0799,0.0663 0.14019,0.17081 0.0667,0.11549 0.083,0.22829 0.0181,0.11175 -0.009,0.21296 -0.0253,0.10018 -0.0932,0.18578 -0.0661,0.0846 -0.1687,0.14382 -0.11182,0.0646 -0.22017,0.0758 -0.10655,0.0103 -0.20331,-0.0219 -0.0949,-0.0332 -0.17401,-0.1024 -0.0791,-0.0692 -0.13413,-0.16452 -0.0603,-0.10449 -0.0771,-0.20969 -0.016,-0.10809 0.0104,-0.20641 0.0271,-0.10122 0.0968,-0.18788 0.0697,-0.0867 0.17971,-0.15018 z m 0.43174,0.79438 q 0.0752,-0.0434 0.11351,-0.0997 0.0373,-0.0582 0.0449,-0.12119 0.009,-0.0641 -0.008,-0.12759 -0.0163,-0.0663 -0.0513,-0.12682 -0.036,-0.0624 -0.0831,-0.10599 -0.0464,-0.0465 -0.10267,-0.0678 -0.0545,-0.0224 -0.11844,-0.0147 -0.0633,0.005 -0.1329,0.045 -0.0715,0.0413 -0.1109,0.0958 -0.0394,0.0545 -0.0517,0.11784 -0.0115,0.0605 0.003,0.12785 0.0144,0.0674 0.0525,0.13342 0.0772,0.13381 0.19375,0.17899 0.11722,0.0422 0.25107,-0.035 z" style="font-weight:bold;font-size:2.11667px;font-family:Sniglet;-inkscape-font-specification:'Sniglet Bold';fill:#000000;stroke-width:0.315912;stroke-linecap:round;stroke-linejoin:round" id="SvgjsPath1176"></path><path d="m -642.3688,176.0872 q -0.0719,-0.11248 -0.16462,-0.26912 -0.0921,-0.15948 -0.2085,-0.36113 -0.0174,0.0123 -0.043,0.0271 -0.0238,0.0137 -0.0384,0.0222 -0.033,0.019 -0.0615,0.0332 -0.0266,0.0131 -0.0522,0.0155 -0.0255,0.002 -0.046,-0.008 -0.0216,-0.012 -0.0395,-0.0431 -0.0508,-0.088 0.0812,-0.16419 0.0202,-0.0117 0.0495,-0.0286 0.0294,-0.0169 0.0515,-0.0251 -0.0561,-0.0971 -0.0865,-0.15781 -0.0304,-0.0606 -0.039,-0.0972 -0.008,-0.0394 0.003,-0.058 0.012,-0.0216 0.0395,-0.0375 0.0294,-0.017 0.0593,-0.007 0.03,0.01 0.0572,0.0354 0.029,0.0248 0.053,0.0622 0.0257,0.0365 0.0469,0.0732 0.0148,0.0256 0.0258,0.0486 0.0117,0.0202 0.0212,0.0366 0.0216,-0.0217 0.0492,-0.0376 0.0265,-0.0176 0.0522,-0.0324 0.0678,-0.0392 0.11719,-0.0383 0.0483,-9.7e-4 0.0758,0.0467 0.0169,0.0294 0.0147,0.055 -0.003,0.0239 -0.02,0.0457 -0.0149,0.0208 -0.0421,0.0414 -0.0265,0.0176 -0.0595,0.0367 -0.0184,0.0106 -0.0422,0.0243 -0.0238,0.0138 -0.046,0.0219 0.0561,0.0971 0.10266,0.17781 0.0465,0.0806 0.0882,0.15681 0.0406,0.0744 0.0812,0.14865 0.0406,0.0744 0.0848,0.15881 0.0237,0.045 0.03,0.0731 0.009,0.0268 0.005,0.0462 -0.004,0.0192 -0.0161,0.0313 -0.0118,0.009 -0.0302,0.0197 -0.033,0.019 -0.0695,0.0108 -0.0357,-0.0111 -0.0828,-0.0842 z" style="font-weight:bold;font-size:2.11667px;font-family:Sniglet;-inkscape-font-specification:'Sniglet Bold';fill:#000000;stroke-width:0.315912;stroke-linecap:round;stroke-linejoin:round" id="SvgjsPath1175"></path><path d="m -640.97412,175.45063 q -0.0294,0.0169 -0.0529,0.0183 -0.0229,-0.001 -0.0415,-0.0127 -0.0187,-0.0111 -0.035,-0.031 -0.0172,-0.0218 -0.0337,-0.0464 -0.013,0.0833 -0.0641,0.16411 -0.0492,0.0797 -0.16111,0.14428 -0.0715,0.0412 -0.1583,0.0645 -0.0861,0.0203 -0.17616,0.004 -0.0912,-0.0182 -0.18048,-0.084 -0.0892,-0.0658 -0.16651,-0.1996 -0.0603,-0.10449 -0.0876,-0.21094 -0.0273,-0.10645 -0.0151,-0.20393 0.013,-0.10033 0.0685,-0.18618 0.0555,-0.0859 0.16183,-0.14725 0.0935,-0.054 0.18691,-0.0615 0.0924,-0.009 0.19549,0.0338 -0.0127,-0.022 -0.0237,-0.045 -0.012,-0.0248 -0.0152,-0.0475 -0.002,-0.0255 0.01,-0.0471 0.011,-0.0234 0.0421,-0.0414 0.0275,-0.0159 0.0641,-0.008 0.0365,0.008 0.0826,0.0794 0.0613,0.0942 0.10747,0.17015 0.0479,0.075 0.0955,0.15747 0.0582,0.10082 0.10516,0.18614 0.047,0.0853 0.0945,0.18494 0.0209,0.0442 0.0282,0.0742 0.009,0.0268 0.007,0.0451 -0.003,0.0163 -0.0136,0.0273 -0.0108,0.0109 -0.0236,0.0183 z m -0.3678,-0.40845 q -0.055,-0.0953 -0.11932,-0.13887 -0.0625,-0.0446 -0.12542,-0.0522 -0.0623,-0.0105 -0.11915,0.005 -0.0569,0.0158 -0.0991,0.0401 -0.066,0.0381 -0.0999,0.0894 -0.0321,0.0503 -0.0371,0.10939 -0.006,0.0573 0.0121,0.12255 0.0189,0.0624 0.057,0.12839 0.0931,0.16131 0.20721,0.1981 0.11598,0.0357 0.23692,-0.0341 0.0715,-0.0413 0.10724,-0.0937 0.0366,-0.0553 0.0433,-0.11541 0.009,-0.0612 -0.01,-0.12649 -0.0173,-0.0682 -0.0544,-0.13236 z" style="font-weight:bold;font-size:2.11667px;font-family:Sniglet;-inkscape-font-specification:'Sniglet Bold';fill:#000000;stroke-width:0.315912;stroke-linecap:round;stroke-linejoin:round" id="SvgjsPath1174"></path><path d="m -640.59071,175.06062 q -0.0719,-0.11249 -0.16462,-0.26913 -0.0921,-0.15948 -0.20849,-0.36112 -0.0174,0.0123 -0.043,0.0271 -0.0238,0.0137 -0.0385,0.0222 -0.033,0.019 -0.0615,0.0332 -0.0266,0.0131 -0.0522,0.0154 -0.0255,0.002 -0.046,-0.008 -0.0216,-0.012 -0.0395,-0.0431 -0.0508,-0.088 0.0812,-0.16419 0.0202,-0.0117 0.0494,-0.0285 0.0294,-0.017 0.0515,-0.0251 -0.0561,-0.0971 -0.0865,-0.15781 -0.0304,-0.0606 -0.039,-0.0972 -0.008,-0.0393 0.003,-0.0581 0.012,-0.0216 0.0395,-0.0374 0.0294,-0.0169 0.0593,-0.007 0.03,0.01 0.0572,0.0355 0.029,0.0248 0.053,0.0622 0.0257,0.0365 0.0469,0.0732 0.0148,0.0256 0.0258,0.0486 0.0117,0.0202 0.0212,0.0366 0.0216,-0.0217 0.0492,-0.0376 0.0265,-0.0176 0.0522,-0.0324 0.0678,-0.0392 0.11718,-0.0383 0.0483,-9.8e-4 0.0758,0.0467 0.017,0.0293 0.0147,0.055 -0.003,0.0239 -0.02,0.0457 -0.0149,0.0208 -0.0421,0.0414 -0.0265,0.0176 -0.0595,0.0367 -0.0184,0.0106 -0.0422,0.0243 -0.0238,0.0138 -0.046,0.0219 0.0561,0.0971 0.10266,0.17781 0.0466,0.0806 0.0882,0.15681 0.0406,0.0744 0.0812,0.14865 0.0406,0.0744 0.0848,0.1588 0.0237,0.045 0.03,0.0731 0.009,0.0268 0.005,0.0462 -0.004,0.0192 -0.0161,0.0312 -0.0118,0.009 -0.0302,0.0197 -0.033,0.019 -0.0695,0.0108 -0.0357,-0.0111 -0.0828,-0.0842 z" style="font-weight:bold;font-size:2.11667px;font-family:Sniglet;-inkscape-font-specification:'Sniglet Bold';fill:#000000;stroke-width:0.315912;stroke-linecap:round;stroke-linejoin:round" id="SvgjsPath1173"></path><path d="m -640.0833,173.68736 q 0.1045,-0.0603 0.20604,-0.075 0.10053,-0.0165 0.19118,0.009 0.0925,0.0248 0.17236,0.0911 0.0799,0.0663 0.14019,0.17081 0.0667,0.11548 0.083,0.22828 0.0181,0.11176 -0.009,0.21297 -0.0253,0.10017 -0.0932,0.18577 -0.0661,0.0846 -0.16871,0.14382 -0.11182,0.0646 -0.22017,0.0759 -0.10655,0.0103 -0.20331,-0.0219 -0.0949,-0.0332 -0.17401,-0.10239 -0.0791,-0.0692 -0.13413,-0.16453 -0.0603,-0.10448 -0.0771,-0.20968 -0.016,-0.10809 0.0104,-0.20641 0.0271,-0.10122 0.0968,-0.18789 0.0697,-0.0867 0.17971,-0.15017 z m 0.43174,0.79438 q 0.0752,-0.0434 0.11352,-0.0997 0.0373,-0.0582 0.0449,-0.12119 0.009,-0.0641 -0.008,-0.12759 -0.0163,-0.0663 -0.0513,-0.12682 -0.036,-0.0624 -0.0831,-0.10599 -0.0464,-0.0465 -0.10266,-0.0678 -0.0545,-0.0224 -0.11846,-0.0148 -0.0633,0.005 -0.13289,0.045 -0.0715,0.0413 -0.1109,0.0958 -0.0394,0.0545 -0.0517,0.11785 -0.0115,0.0605 0.003,0.12785 0.0144,0.0674 0.0525,0.13342 0.0772,0.13381 0.19375,0.17899 0.11723,0.0422 0.25107,-0.035 z" style="font-weight:bold;font-size:2.11667px;font-family:Sniglet;-inkscape-font-specification:'Sniglet Bold';fill:#000000;stroke-width:0.315912;stroke-linecap:round;stroke-linejoin:round" id="SvgjsPath1172"></path><g id="SvgjsG1171"><path id="SvgjsPath1170" d="m -665.31087,157.33512 0.0731,0.12357 c 0.0141,-0.0421 0.0282,-0.0831 0.0421,-0.12435 -0.0404,0.004 -0.0802,0.007 -0.1152,6.4e-4" style="fill:#c5693c;fill-opacity:1;fill-rule:nonzero;stroke:none;stroke-width:0.0113156"></path><path id="SvgjsPath1169" d="m -665.31087,157.33512 0.0731,0.12357 c 0.0141,-0.0421 0.0282,-0.0831 0.0421,-0.12435 -0.0404,0.004 -0.0802,0.007 -0.1152,6.4e-4 z" style="fill:none;stroke:#000000;stroke-width:0.341166;stroke-linecap:round;stroke-linejoin:miter;stroke-miterlimit:10;stroke-dasharray:none;stroke-opacity:1"></path><path id="SvgjsPath1168" d="m -665.31087,157.33512 -0.12288,-0.20729 c -0.007,0.14835 0.0473,0.19564 0.12288,0.20729" style="fill:#c5693c;fill-opacity:1;fill-rule:nonzero;stroke:none;stroke-width:0.0113156"></path><path id="SvgjsPath1167" d="m -647.9286,171.32087 c -0.19184,0 -0.60198,-0.14584 -0.78787,-0.49876 -0.31721,-0.60225 -0.51276,-1.61857 -0.6351,-2.55397 -0.0644,-0.49219 -0.1157,-1.25509 -0.4037,-1.20936 -1.21006,0.30912 -3.31942,0.51935 -4.35548,0.51935 -2.37752,0 -4.97643,-0.35683 -6.24377,-1.04538 -0.19581,-0.0791 -0.0738,0.80195 -0.11717,1.39804 -0.0732,1.00574 -0.20193,2.2291 -0.6058,2.89728 -0.23514,0.389 -0.83568,0.49907 -1.04062,0.49907 -0.49087,0 -0.96714,-0.39967 -1.41558,-1.18803 -1.31657,-2.31381 -1.76863,-11.89315 -1.72133,-12.58431 l -6.3e-4,-1.3e-4 -0.10863,0.32466 -0.20267,-0.34218 -0.0453,0.004 0.0172,-0.0504 c -0.0811,-0.0366 -0.17223,-0.11892 -0.17936,-0.30371 l -0.0363,-0.0615 0.0366,0.006 0.0262,-0.5686 0.29896,0.50479 c 1.17943,-3.31015 2.47358,-3.65664 7.16661,-3.65765 1.79193,-0.45172 3.43778,-0.68075 4.89173,-0.68075 4.92555,0 7.83344,2.64366 8.18795,7.44418 0.30428,4.11775 -0.62484,9.40799 -1.59583,10.52981 -0.26601,0.3073 -0.50136,0.46256 -0.69881,0.54063 -0.17525,0.0693 -0.32066,0.0778 -0.43117,0.0778" style="fill:#d89167;fill-opacity:1;fill-rule:nonzero;stroke:#000000;stroke-width:0.341711;stroke-dasharray:none" sodipodi:nodetypes="csscscssscccccccccccccsccsc"></path><path id="SvgjsPath1166" d="m -665.31087,157.33512 -0.12288,-0.20729 c -0.007,0.14835 0.0473,0.19564 0.12288,0.20729 z" style="fill:none;stroke:#000000;stroke-width:0.341166;stroke-linecap:round;stroke-linejoin:miter;stroke-miterlimit:10;stroke-dasharray:none;stroke-opacity:1"></path><path d="m 5413.04,4010.52 c -33.83,457.94 -344.04,766.84 -1086.83,596.27 -26.17,-196.97 -160.85,-496.91 111.15,-551.31 259.75,-47.23 423.87,7.01 653.09,7.87 229.2,0.86 322.59,-52.83 312.12,-380.02 14.61,92.89 19.75,201.64 10.47,327.19" style="opacity:0.589996;fill:#a47a61;fill-opacity:1;fill-rule:nonzero;stroke:none" transform="matrix(0.01131558,0,0,-0.01131558,-706.45433,205.55434)" clip-path="url(#clipPath7)" id="SvgjsPath1165"></path><path d="m 4605.37,4520.79 c 0,-21.54 -30.12,-39 -67.27,-39 -37.15,0 -67.27,17.46 -67.27,39 0,21.54 30.12,39.01 67.27,39.01 37.15,0 67.27,-17.47 67.27,-39.01" style="fill:#d89167;fill-opacity:1;fill-rule:nonzero;stroke:none" transform="matrix(0.01131558,0,0,-0.01131558,-706.45433,205.55434)" clip-path="url(#clipPath6)" id="SvgjsPath1164"></path><path d="m 4854.3,4541.96 c -0.62,-18.02 -26.32,-31.77 -57.41,-30.7 -31.09,1.07 -55.78,16.55 -55.16,34.58 0.62,18.02 26.32,31.76 57.41,30.69 31.07,-1.07 55.78,-16.55 55.16,-34.57" style="fill:#d89167;fill-opacity:1;fill-rule:nonzero;stroke:none" transform="matrix(0.01131558,0,0,-0.01131558,-706.45433,205.55434)" clip-path="url(#clipPath3)" id="SvgjsPath1163"></path><path d="m 5109.26,4493.52 c -0.59,-17.01 -24.84,-29.98 -54.19,-28.97 -29.34,1.01 -52.63,15.62 -52.05,32.63 0.59,17.01 24.85,29.98 54.18,28.97 29.34,-1.01 52.65,-15.62 52.06,-32.63" style="fill:#d89167;fill-opacity:1;fill-rule:nonzero;stroke:none" transform="matrix(0.01131558,0,0,-0.01131558,-706.45433,205.55434)" clip-path="url(#clipPath8)" id="SvgjsPath1162"></path><path d="m 4753.82,4370.44 c 0,-18.03 -25.21,-32.65 -56.32,-32.65 -31.1,0 -56.31,14.62 -56.31,32.65 0,18.02 25.21,32.65 56.31,32.65 31.11,0 56.32,-14.63 56.32,-32.65" style="fill:#d89167;fill-opacity:1;fill-rule:nonzero;stroke:none" transform="matrix(0.01131558,0,0,-0.01131558,-706.45433,205.55434)" clip-path="url(#clipPath2)" id="SvgjsPath1161"></path><path d="m 4927.06,4212.77 c -1.74,-17.95 -24.42,-30.45 -50.66,-27.91 -26.24,2.55 -46.1,19.16 -44.36,37.1 1.74,17.95 24.42,30.45 50.66,27.9 26.24,-2.54 46.1,-19.15 44.36,-37.09" style="fill:#d89167;fill-opacity:1;fill-rule:nonzero;stroke:none" transform="matrix(0.01131558,0,0,-0.01131558,-706.45433,205.55434)" clip-path="url(#clipPath11)" id="SvgjsPath1160"></path><path d="m 4633.22,4218.45 c -1.74,-17.95 -24.42,-30.44 -50.66,-27.9 -26.24,2.54 -46.1,19.15 -44.36,37.1 1.75,17.95 24.43,30.44 50.66,27.9 26.24,-2.54 46.1,-19.15 44.36,-37.1" style="fill:#d89167;fill-opacity:1;fill-rule:nonzero;stroke:none" transform="matrix(0.01131558,0,0,-0.01131558,-706.45433,205.55434)" clip-path="url(#clipPath4)" id="SvgjsPath1159"></path><path d="m 5259.38,4242.2 c -1.74,-17.95 -24.42,-30.44 -50.66,-27.9 -26.24,2.54 -46.1,19.15 -44.36,37.1 1.74,17.95 24.42,30.44 50.66,27.9 26.24,-2.54 46.1,-19.15 44.36,-37.1" style="fill:#d89167;fill-opacity:1;fill-rule:nonzero;stroke:none" transform="matrix(0.01131558,0,0,-0.01131558,-706.45433,205.55434)" clip-path="url(#clipPath5)" id="SvgjsPath1158"></path><path d="m 4507.57,4348.48 c -0.62,-18.02 -26.32,-31.77 -57.41,-30.71 -31.08,1.07 -55.78,16.55 -55.16,34.57 0.62,18.04 26.33,31.78 57.41,30.71 31.08,-1.07 55.78,-16.55 55.16,-34.57" style="fill:#d89167;fill-opacity:1;fill-rule:nonzero;stroke:none" transform="matrix(0.01131558,0,0,-0.01131558,-706.45433,205.55434)" clip-path="url(#clipPath10)" id="SvgjsPath1157"></path><path d="m 5032.08,4344.25 c -4.17,-17.55 -32.08,-25.95 -62.34,-18.77 -30.26,7.2 -51.41,27.24 -47.24,44.79 4.16,17.54 32.07,25.94 62.33,18.75 30.26,-7.18 51.42,-27.23 47.25,-44.77" style="fill:#d89167;fill-opacity:1;fill-rule:nonzero;stroke:none" transform="matrix(0.01131558,0,0,-0.01131558,-706.45433,205.55434)" clip-path="url(#clipPath9)" id="SvgjsPath1156"></path><path id="SvgjsPath1155" d="m -662.51252,149.76534 c 0.80827,-0.86621 0.64465,-3.0311 -0.40839,-3.75224 -1.05291,-0.72115 -3.90478,1.14853 -2.9632,3.67733" style="fill:#d89167;fill-opacity:1;fill-rule:nonzero;stroke:#000000;stroke-width:0.341711;stroke-linecap:round;stroke-linejoin:miter;stroke-miterlimit:10;stroke-dasharray:none;stroke-opacity:1"></path><path id="SvgjsPath1154" d="m -664.90407,148.96997 c -0.71911,-0.37432 0.42128,-2.20303 1.1801,-2.05162 0.75882,0.15128 0.88023,1.38468 0.57845,1.81897 -0.30178,0.43429 -1.03944,0.60697 -1.75855,0.23265" style="fill:#edcd9d;fill-opacity:1;fill-rule:nonzero;stroke:none;stroke-width:0.0113156"></path><path id="SvgjsPath1153" d="m -664.12013,158.85775 c -3.76221,0.49778 -5.6931,-0.77251 -6.1516,-2.21571 -0.45851,-1.44319 0.14563,-2.31516 1.36817,-3.78482 1.22264,-1.46979 1.16833,-3.99938 4.24051,-4.67674 3.07218,-0.67746 7.85404,1.23228 6.88678,6.81244" style="fill:#d89167;fill-opacity:1;fill-rule:nonzero;stroke:#000000;stroke-width:0.341711;stroke-linecap:round;stroke-linejoin:miter;stroke-miterlimit:10;stroke-dasharray:none;stroke-opacity:1"></path><path id="SvgjsPath1152" d="m -666.05702,155.21436 c -1.47714,-0.94157 -3.35835,-0.51361 -4.15112,0.0604 -0.0837,0.41889 -0.0548,0.85738 0.10716,1.36725 0.37239,1.1723 1.73932,2.10357 4.2472,2.19274 0.77465,-0.80555 1.27401,-2.67884 -0.20324,-3.62042" style="fill:#edcd9d;fill-opacity:1;fill-rule:nonzero;stroke:none;stroke-width:0.0113156"></path><path id="SvgjsPath1151" d="m -665.10697,151.55999 c 0.009,-0.25606 0.22349,-0.45647 0.47957,-0.44765 0.25606,0.009 0.45647,0.22349 0.44763,0.47957 -0.009,0.25606 -0.22347,0.45647 -0.47955,0.44764 -0.25606,-0.009 -0.45646,-0.22348 -0.44765,-0.47956" style="fill:#000000;fill-opacity:1;fill-rule:nonzero;stroke:none;stroke-width:0.0113156"></path><path id="SvgjsPath1150" d="m -667.61405,150.50685 -0.37997,0.83917 c 0.0448,0.0164 0.0921,0.0282 0.14235,0.0299 0.25608,0.009 0.47084,-0.19158 0.47967,-0.44766 0.007,-0.18104 -0.0934,-0.33991 -0.24205,-0.42138" style="fill:#000000;fill-opacity:1;fill-rule:nonzero;stroke:none;stroke-width:0.0113156"></path><path id="SvgjsPath1149" d="m -669.91495,155.60837 c 0.11677,-0.49075 1.59017,-0.51815 1.79035,-0.12616 0.20017,0.39208 -0.32895,1.24324 -0.84811,1.25455 -0.51926,0.0113 -1.05902,-0.63763 -0.94224,-1.12839" style="fill:#000000;fill-opacity:1;fill-rule:nonzero;stroke:none;stroke-width:0.0113156"></path><path id="SvgjsPath1148" d="m -662.46126,148.85534 c 0.10059,-1.18032 1.81602,-2.51104 3.05724,-2.21355 1.2411,0.29748 1.76681,3.66682 -0.7405,4.66428" style="fill:#d89167;fill-opacity:1;fill-rule:nonzero;stroke:#000000;stroke-width:0.341711;stroke-linecap:round;stroke-linejoin:miter;stroke-miterlimit:10;stroke-dasharray:none;stroke-opacity:1"></path><path id="SvgjsPath1147" d="m -660.2674,150.09587 c 0.76007,0.28244 1.35165,-1.78991 0.73053,-2.25123 -0.62112,-0.46145 -1.61756,0.27587 -1.73717,0.79073 -0.11983,0.5152 0.24668,1.17818 1.00664,1.4605" style="fill:#edcd9d;fill-opacity:1;fill-rule:nonzero;stroke:none;stroke-width:0.0113156"></path></g><path style="font-weight:bold;font-size:5.64444px;font-family:Sniglet;-inkscape-font-specification:'Sniglet Bold';text-align:center;text-anchor:middle;stroke-width:0.5;stroke-linecap:round;stroke-linejoin:round" d="m -663.34065,176.49897 q 0,0.10724 -0.006,0.2032 -0.006,0.1016 -0.0395,0.18062 -0.0282,0.079 -0.0903,0.12418 -0.0565,0.0508 -0.16369,0.0508 -0.12418,0 -0.20885,-0.0903 -0.079,-0.0847 -0.0903,-0.3048 -0.006,-0.14111 -0.0169,-0.34431 -0.0113,-0.2032 -0.0226,-0.42898 -0.006,-0.22578 -0.0169,-0.45155 -0.006,-0.22578 -0.006,-0.41769 0,-0.6604 0.0903,-1.08938 0.096,-0.42898 0.28223,-0.68298 0.18626,-0.254 0.45719,-0.3556 0.27658,-0.1016 0.63783,-0.1016 0.28786,0 0.54186,0.0903 0.254,0.0847 0.44027,0.27094 0.19191,0.18062 0.3048,0.47413 0.11289,0.28787 0.11289,0.69427 0,0.33866 -0.11854,0.59831 -0.11288,0.25964 -0.31608,0.44026 -0.2032,0.17498 -0.47978,0.27094 -0.27093,0.0903 -0.58138,0.0903 -0.26529,0 -0.47978,-0.10725 -0.20884,-0.11289 -0.29915,-0.24271 0.0282,0.31609 0.0451,0.58702 0.0226,0.27094 0.0226,0.54187 z m 0.77893,-3.14395 q -0.19755,0 -0.34431,0.0677 -0.14111,0.0677 -0.23142,0.18627 -0.0903,0.11853 -0.13547,0.28222 -0.0395,0.16369 -0.0395,0.3556 0,0.18626 0.0339,0.3556 0.0395,0.16369 0.12418,0.28786 0.0847,0.12418 0.22578,0.19756 0.14111,0.0734 0.34431,0.0734 0.15804,0 0.3048,-0.0395 0.14675,-0.0452 0.25964,-0.14676 0.11853,-0.1016 0.18627,-0.27093 0.0734,-0.16934 0.0734,-0.42334 0,-0.25964 -0.0734,-0.43462 -0.0677,-0.18062 -0.18627,-0.28786 -0.11289,-0.11289 -0.25964,-0.15805 -0.14111,-0.0452 -0.28223,-0.0452 z m 2.42711,-0.22578 q 0.0113,0.14675 0.006,0.3556 0,0.20884 0.006,0.44027 0.0113,0.22577 0.0395,0.45719 0.0282,0.22578 0.096,0.4064 0.0734,0.18063 0.19756,0.29352 0.12982,0.11288 0.33302,0.11288 0.2032,0 0.32738,-0.11288 0.12982,-0.11289 0.19755,-0.29352 0.0734,-0.18062 0.1016,-0.4064 0.0282,-0.23142 0.0339,-0.45719 0.0113,-0.23143 0.006,-0.44027 0,-0.20885 0.0113,-0.3556 0.0226,-0.34996 0.28787,-0.34996 0.1016,0 0.15804,0.0565 0.0564,0.0564 0.079,0.15804 0.0282,0.1016 0.0339,0.24271 0.006,0.14111 0.006,0.31609 0,0.36125 -0.0395,0.75071 -0.0339,0.38382 -0.16369,0.70556 -0.12418,0.32173 -0.37254,0.53057 -0.24835,0.20885 -0.66604,0.20885 -0.41769,0 -0.66604,-0.20885 -0.24836,-0.20884 -0.37818,-0.53057 -0.12418,-0.32174 -0.16369,-0.70556 -0.0339,-0.38946 -0.0339,-0.75071 0,-0.17498 0.006,-0.31609 0.006,-0.14111 0.0282,-0.24271 0.0282,-0.1016 0.0847,-0.15804 0.0564,-0.0565 0.15804,-0.0565 0.26529,0 0.28787,0.34996 z m 4.92194,2.54564 q -0.11288,0 -0.19191,-0.0903 -0.0734,-0.0903 -0.1016,-0.20884 -0.0677,0.0621 -0.15804,0.12417 -0.0847,0.0621 -0.19756,0.11854 -0.11288,0.0508 -0.24835,0.0847 -0.13547,0.0339 -0.29351,0.0339 -0.19191,0 -0.42898,-0.0621 -0.23142,-0.0677 -0.44027,-0.22578 -0.2032,-0.16368 -0.34431,-0.44026 -0.13546,-0.27658 -0.13546,-0.69427 0,-0.3556 0.10724,-0.63218 0.10725,-0.27657 0.29916,-0.46284 0.19755,-0.19191 0.46284,-0.28787 0.27093,-0.1016 0.58702,-0.1016 0.27094,0 0.42898,0.0621 0.15804,0.0621 0.24835,0.14676 0,-0.1524 0,-0.34431 0,-0.19756 0,-0.37818 0.006,-0.18627 0.006,-0.33867 0.006,-0.1524 0.0113,-0.23142 0.0113,-0.19191 0.0677,-0.25964 0.0565,-0.0734 0.19756,-0.0734 0.14675,0 0.19755,0.0734 0.0564,0.0677 0.0677,0.24271 0.006,0.0734 0.006,0.19755 0.006,0.12418 0.006,0.27094 0,0.14675 0,0.29915 0.006,0.14676 0.006,0.27093 0,0.11854 0,0.19756 0,0.079 0,0.079 0,0.57574 -0.0113,1.06116 -0.006,0.48542 -0.006,0.77329 0.0113,0.0621 0.0452,0.11853 0.0395,0.0564 0.079,0.11289 0.0452,0.0564 0.079,0.11853 0.0339,0.0621 0.0339,0.12982 0,0.079 -0.0395,0.14111 -0.0395,0.0565 -0.1016,0.096 -0.0564,0.0395 -0.12418,0.0621 -0.0621,0.0169 -0.11289,0.0169 z m -1.08937,-0.49671 q 0.34995,0 0.53622,-0.20884 0.18627,-0.20885 0.18627,-0.68863 0,-0.92004 -0.72814,-0.92004 -0.16933,0 -0.32737,0.0508 -0.15805,0.0508 -0.28223,0.15805 -0.11853,0.10724 -0.19755,0.27093 -0.0734,0.16369 -0.0734,0.38946 0,0.18627 0.0508,0.3556 0.0564,0.16934 0.16369,0.3048 0.11289,0.12983 0.27658,0.20885 0.16933,0.079 0.39511,0.079 z m 2.41581,-2.04893 q 0.0113,0.14675 0.006,0.3556 0,0.20884 0.006,0.44027 0.0113,0.22577 0.0395,0.45719 0.0282,0.22578 0.096,0.4064 0.0734,0.18063 0.19755,0.29352 0.12983,0.11288 0.33303,0.11288 0.2032,0 0.32737,-0.11288 0.12983,-0.11289 0.19756,-0.29352 0.0734,-0.18062 0.1016,-0.4064 0.0282,-0.23142 0.0339,-0.45719 0.0113,-0.23143 0.006,-0.44027 0,-0.20885 0.0113,-0.3556 0.0226,-0.34996 0.28787,-0.34996 0.1016,0 0.15804,0.0565 0.0564,0.0564 0.079,0.15804 0.0282,0.1016 0.0339,0.24271 0.006,0.14111 0.006,0.31609 0,0.36125 -0.0395,0.75071 -0.0339,0.38382 -0.16369,0.70556 -0.12417,0.32173 -0.37253,0.53057 -0.24836,0.20885 -0.66604,0.20885 -0.41769,0 -0.66605,-0.20885 -0.24835,-0.20884 -0.37818,-0.53057 -0.12417,-0.32174 -0.16368,-0.70556 -0.0339,-0.38946 -0.0339,-0.75071 0,-0.17498 0.006,-0.31609 0.006,-0.14111 0.0282,-0.24271 0.0282,-0.1016 0.0847,-0.15804 0.0564,-0.0565 0.15805,-0.0565 0.26529,0 0.28786,0.34996 z" id="SvgjsPath1146" aria-label="pudu"></path></g><style type="text/css" id="SvgjsStyle1145">
	.st0{fill:#75AADB;}
	.st1{fill:#4D4D4D;}
	.st2{fill:#FFFFFF;}
	.st3{fill:url(#SVGID_1_);}
	.st4{fill:url(#SVGID_2_);}
	.st5{fill:url(#SVGID_3_);}
	.st6{fill:url(#SVGID_4_);}
	.st7{fill:url(#SVGID_5_);}
	.st8{fill:url(#SVGID_6_);}
	.st9{fill:url(#SVGID_7_);}
	.st10{fill:url(#SVGID_8_);}
	.st11{fill:url(#SVGID_9_);}
	.st12{fill:url(#SVGID_10_);}
	.st13{opacity:0.18;fill:url(#SVGID_11_);}
	.st14{opacity:0.3;}
</style><style type="text/css" id="SvgjsStyle1144">
	.st0{fill:#75AADB;}
	.st1{fill:#4D4D4D;}
	.st2{fill:#FFFFFF;}
	.st3{fill:url(#SVGID_1_);}
	.st4{fill:url(#SVGID_2_);}
	.st5{fill:url(#SVGID_3_);}
	.st6{fill:url(#SVGID_4_);}
	.st7{fill:url(#SVGID_5_);}
	.st8{fill:url(#SVGID_6_);}
	.st9{fill:url(#SVGID_7_);}
	.st10{fill:url(#SVGID_8_);}
	.st11{fill:url(#SVGID_9_);}
	.st12{fill:url(#SVGID_10_);}
	.st13{opacity:0.18;fill:url(#SVGID_11_);}
	.st14{opacity:0.3;}
</style><style type="text/css" id="SvgjsStyle1143">
	.st0{fill:#75AADB;}
	.st1{fill:#4D4D4D;}
	.st2{fill:#FFFFFF;}
	.st3{fill:url(#SVGID_1_);}
	.st4{fill:url(#SVGID_2_);}
	.st5{fill:url(#SVGID_3_);}
	.st6{fill:url(#SVGID_4_);}
	.st7{fill:url(#SVGID_5_);}
	.st8{fill:url(#SVGID_6_);}
	.st9{fill:url(#SVGID_7_);}
	.st10{fill:url(#SVGID_8_);}
	.st11{fill:url(#SVGID_9_);}
	.st12{fill:url(#SVGID_10_);}
	.st13{opacity:0.18;fill:url(#SVGID_11_);}
	.st14{opacity:0.3;}
</style><style type="text/css" id="SvgjsStyle1142">
	.st0{fill:#75AADB;}
	.st1{fill:#4D4D4D;}
	.st2{fill:#FFFFFF;}
	.st3{fill:url(#SVGID_1_);}
	.st4{fill:url(#SVGID_2_);}
	.st5{fill:url(#SVGID_3_);}
	.st6{fill:url(#SVGID_4_);}
	.st7{fill:url(#SVGID_5_);}
	.st8{fill:url(#SVGID_6_);}
	.st9{fill:url(#SVGID_7_);}
	.st10{fill:url(#SVGID_8_);}
	.st11{fill:url(#SVGID_9_);}
	.st12{fill:url(#SVGID_10_);}
	.st13{opacity:0.18;fill:url(#SVGID_11_);}
	.st14{opacity:0.3;}
</style><style type="text/css" id="SvgjsStyle1141">
	.st0{fill:#75AADB;}
	.st1{fill:#4D4D4D;}
	.st2{fill:#FFFFFF;}
	.st3{fill:url(#SVGID_1_);}
	.st4{fill:url(#SVGID_2_);}
	.st5{fill:url(#SVGID_3_);}
	.st6{fill:url(#SVGID_4_);}
	.st7{fill:url(#SVGID_5_);}
	.st8{fill:url(#SVGID_6_);}
	.st9{fill:url(#SVGID_7_);}
	.st10{fill:url(#SVGID_8_);}
	.st11{fill:url(#SVGID_9_);}
	.st12{fill:url(#SVGID_10_);}
	.st13{opacity:0.18;fill:url(#SVGID_11_);}
	.st14{opacity:0.3;}
</style><style type="text/css" id="SvgjsStyle1140">
	.st0{fill:#75AADB;}
	.st1{fill:#4D4D4D;}
	.st2{fill:#FFFFFF;}
	.st3{fill:url(#SVGID_1_);}
	.st4{fill:url(#SVGID_2_);}
	.st5{fill:url(#SVGID_3_);}
	.st6{fill:url(#SVGID_4_);}
	.st7{fill:url(#SVGID_5_);}
	.st8{fill:url(#SVGID_6_);}
	.st9{fill:url(#SVGID_7_);}
	.st10{fill:url(#SVGID_8_);}
	.st11{fill:url(#SVGID_9_);}
	.st12{fill:url(#SVGID_10_);}
	.st13{opacity:0.18;fill:url(#SVGID_11_);}
	.st14{opacity:0.3;}
</style></svg><style>@media (prefers-color-scheme: light) { :root { filter: none; } }
@media (prefers-color-scheme: dark) { :root { filter: none; } }
</style></svg>